<svg xmlns="http://www.w3.org/2000/svg" viewBox="0 0 308 104"><g stroke="#000" transform="translate(-37.998 -41.683)"><path fill="#f80781" stroke-width="5" stroke-linejoin="round" d="M40.497 93.686l49.498-49.497 49.497 49.497-49.497 49.497z"/><path d="M98.73 79.63l-8.734 13.277 17.879 13.595-3.523 6.102 3.676 2.122 6.294-6.545zm-17.469 0l8.735 13.277-17.88 13.595 3.523 6.102-3.676 2.122-6.294-6.545z" fill="#054f8b" stroke-width="3"/><circle r="11.292" cy="84.152" cx="89.996" fill="#078bf8" stroke-width="3" stroke-linejoin="round"/><circle cx="89.996" cy="84.152" r="5.646" fill="#078bf8" stroke-width="1.5" stroke-linejoin="round"/><path d="M89.996 46.247v26.34" fill="none" stroke-width="7" stroke-dashoffset="15.042"/></g><g style="line-height:1.25;-inkscape-font-specification:'Anonymous Pro for Powerline'"><path d="M148.634 54.122v4.982h30.71c-.818 3.57-2.677 6.618-5.8 9.741-4.238 4.239-10.038 6.544-16.433 6.544-13.46 0-24.093-10.262-24.093-23.35 0-13.235 10.41-23.423 24.018-23.423 8.477 0 15.616 3.867 19.408 10.56h6.172c-3.644-9.37-14.054-15.616-26.026-15.616-16.36 0-29.149 12.418-29.149 28.331 0 16.136 13.013 28.554 29.893 28.554 8.7 0 16.136-3.197 21.415-9.295 4.462-5.13 6.842-10.856 7.213-17.028zm44.994 25.357h5.503V55.758c-.074-7.362 4.015-11.898 11.526-12.493v-5.428c-5.875.297-9.37 2.305-11.526 6.767v-5.8h-5.503zm61.316-40.675h-5.503v7.213c-4.09-5.652-8.997-8.18-16.061-8.18-12.195 0-21.416 9.22-21.416 21.416 0 12.195 9.295 21.192 21.862 21.192 6.915 0 11.228-2.23 15.615-8.105v7.139h5.503zm-21.416 4.09c8.998 0 15.913 6.99 15.913 16.061 0 9.295-6.84 16.434-15.615 16.434-9.22 0-16.285-7.213-16.285-16.508a15.963 15.963 0 0 1 15.987-15.987zm30.83 36.585h5.502v-6.99c3.42 5.056 9.22 7.956 15.913 7.956 12.27 0 21.49-9.146 21.49-21.341 0-11.972-9.37-21.267-21.415-21.267-6.842 0-12.493 2.826-15.988 7.957V24.527h-5.502zm21.34-36.585c9.147 0 15.988 6.915 15.988 16.061 0 9.37-6.84 16.434-16.062 16.434-4.535 0-8.253-1.562-11.451-4.834-3.197-3.271-4.685-6.99-4.685-11.6 0-9.072 7.065-16.061 16.21-16.061z" style="-inkscape-font-specification:'URW Gothic'" aria-label="Grab" font-weight="400" font-size="74.36" font-family="URW Gothic" letter-spacing="0" word-spacing="0"/></g></svg>